<svg width="336" height="115" viewBox="0 0 336 115" fill="none" xmlns="http://www.w3.org/2000/svg">
<path d="M59.232 50.504C65.664 50.504 67.488 55.784 67.488 62.504V89H81.792V62.216C81.792 49.64 78.048 38.696 64.224 38.696C59.424 38.696 52.512 39.752 48.672 46.952C46.08 41.96 41.184 38.696 33.6 38.696C28.224 38.696 23.616 41.576 20.448 46.472V39.752H6.144V89H20.448V62.6C20.448 55.976 22.368 50.504 28.608 50.504C35.04 50.504 36.864 55.784 36.864 62.504V89H51.072V62.6C51.072 55.976 52.992 50.504 59.232 50.504ZM117.423 50.312C122.223 50.312 128.655 52.712 129.615 59.048H104.943C106.767 52.424 112.815 50.312 117.423 50.312ZM133.359 72.488C129.903 75.848 124.815 78.344 119.727 78.344C110.511 78.344 104.943 73.832 104.655 67.688H144.303C144.303 48.104 131.151 38.696 117.615 38.696C101.775 38.696 90.447 50.12 90.447 64.616C90.447 78.632 100.431 90.056 118.671 90.056C125.295 90.056 134.703 88.04 141.615 80.36L133.359 72.488ZM164.099 64.232C164.099 56.648 168.515 50.312 176.387 50.312C184.163 50.312 189.635 55.784 189.635 65C189.635 73.832 183.779 78.44 176.771 78.44C168.803 78.44 164.099 72.2 164.099 64.232ZM189.251 19.592V46.472C185.891 41.96 180.131 38.696 173.507 38.696C158.147 38.696 149.795 50.312 149.795 64.136C149.795 78.536 158.819 90.056 173.795 90.056C181.091 90.056 185.699 86.888 189.251 81.8V89H203.555V19.592H189.251ZM212.885 64.328C212.885 79.784 225.653 90.056 239.957 90.056C254.261 90.056 267.029 79.688 267.029 64.328C267.029 49.064 254.261 38.696 239.957 38.696C225.653 38.696 212.885 48.968 212.885 64.328ZM226.805 64.328C226.805 56.648 232.949 50.984 239.957 50.984C247.157 50.984 253.109 56.744 253.109 64.328C253.109 72.008 247.157 77.768 239.957 77.768C232.949 77.768 226.805 72.104 226.805 64.328ZM273.166 64.328C273.166 78.92 283.822 89.96 300.718 89.96C305.806 89.96 312.43 88.904 320.878 82.664L314.35 72.2C309.55 76.52 303.886 77.096 301.39 77.096C292.942 77.096 287.47 71.912 287.47 64.328C287.47 56.744 292.942 51.56 301.39 51.56C303.886 51.56 309.55 52.136 314.35 56.456L320.878 45.992C312.43 39.752 305.806 38.696 300.718 38.696C283.822 38.696 273.166 49.736 273.166 64.328Z" fill="white"/>
<path d="M327 14.013H321V21H314V27H321V33.987H327V27H334V21H327V14.013Z" fill="#58FFC3"/>
</svg>
